<svg xmlns="http://www.w3.org/2000/svg" xmlns:xlink="http://www.w3.org/1999/xlink" viewBox="0,0,256,256" width="96px" height="96px" fill-rule="nonzero"><defs><clipPath id="clip-1"><path d="M0,256v-256h256v256zM61.86667,98.13333c1.9968,0 3.98507,-0.128 5.95627,-0.384l19.7376,19.7376c4.02773,4.02773 9.38667,6.2464 15.08693,6.2464h10.4192c11.76747,0 21.33333,-9.5744 21.33333,-21.33333v-10.4192c0,-5.61493 -2.2784,-11.1104 -6.2464,-15.08693l-19.7376,-19.7376c0.256,-1.9712 0.384,-3.95947 0.384,-5.95627c0,-25.8816 -21.06027,-46.93333 -46.93333,-46.93333c-25.87307,0 -46.93333,21.05173 -46.93333,46.93333c0,25.8816 21.06027,46.93333 46.93333,46.93333z" id="overlayBgMask" fill="none"></path></clipPath></defs><g clip-path="url(#clip-1)" fill="none" fill-rule="nonzero" stroke="none" stroke-width="1" stroke-linecap="butt" stroke-linejoin="miter" stroke-miterlimit="10" stroke-dasharray="" stroke-dashoffset="0" font-family="none" font-weight="none" font-size="none" text-anchor="none" style="mix-blend-mode: normal"><g transform="translate(21.33333,-5.33333) scale(10.66667,10.66667)" fill="#13334c"><path d="M12,1c-3.32381,0 -6,2.67619 -6,6v1c-1.1,0 -2,0.9 -2,2v10c0,1.1 0.9,2 2,2h12c1.1,0 2,-0.9 2,-2v-10c0,-1.1 -0.9,-2 -2,-2v-1c0,-3.32381 -2.67619,-6 -6,-6zM12,3c2.27619,0 4,1.72381 4,4v1h-8v-1c0,-2.27619 1.72381,-4 4,-4zM8,14c0.55,0 1,0.45 1,1c0,0.55 -0.45,1 -1,1c-0.55,0 -1,-0.45 -1,-1c0,-0.55 0.45,-1 1,-1zM12,14c0.55,0 1,0.45 1,1c0,0.55 -0.45,1 -1,1c-0.55,0 -1,-0.45 -1,-1c0,-0.55 0.45,-1 1,-1zM16,14c0.55,0 1,0.45 1,1c0,0.55 -0.45,1 -1,1c-0.55,0 -1,-0.45 -1,-1c0,-0.55 0.45,-1 1,-1z"></path></g></g><g fill="#fd5f00" fill-rule="nonzero" stroke="none" stroke-width="1" stroke-linecap="butt" stroke-linejoin="miter" stroke-miterlimit="10" stroke-dasharray="" stroke-dashoffset="0" font-family="none" font-weight="none" font-size="none" text-anchor="none" style="mix-blend-mode: normal"><g transform="translate(32,21.33333) scale(8.53333,8.53333)" id="overlay"><path d="M9.854,7.925l-3.113,-3.113c0.164,-0.406 0.259,-0.847 0.259,-1.312c0,-1.933 -1.567,-3.5 -3.5,-3.5c-1.933,0 -3.5,1.567 -3.5,3.5c0,1.933 1.567,3.5 3.5,3.5c0.465,0 0.906,-0.095 1.312,-0.26l3.113,3.113c0.094,0.094 0.221,0.147 0.354,0.147h1.221c0.276,0 0.5,-0.224 0.5,-0.5v-1.221c0,-0.133 -0.053,-0.26 -0.146,-0.354zM3,4c-0.552,0 -1,-0.448 -1,-1c0,-0.552 0.448,-1 1,-1c0.552,0 1,0.448 1,1c0,0.552 -0.448,1 -1,1z"></path></g></g></svg>