<!DOCTYPE svg PUBLIC "-//W3C//DTD SVG 1.1//EN" "http://www.w3.org/Graphics/SVG/1.1/DTD/svg11.dtd">
<!-- Uploaded to: SVG Repo, www.svgrepo.com, Transformed by: SVG Repo Mixer Tools -->
<svg height="99px" width="99px" version="1.1" id="Layer_1" xmlns="http://www.w3.org/2000/svg" xmlns:xlink="http://www.w3.org/1999/xlink" viewBox="0 0 512 512" xml:space="preserve" fill="#000000" transform="rotate(0)">
<g id="SVGRepo_bgCarrier" stroke-width="0"/>
<g id="SVGRepo_tracerCarrier" stroke-linecap="round" stroke-linejoin="round"/>
<g id="SVGRepo_iconCarrier"> <g> <path style="fill:#eaeadd;" d="M343.104,75.034H168.9c-5.526,0-10.002,4.476-10.002,10.002v32.962 c0,5.526,4.476,10.002,10.002,10.002h174.204c5.526,0,10.002-4.476,10.002-10.002V85.035 C353.105,79.509,348.63,75.034,343.104,75.034"/> <g> <polygon style="fill:#13334c;" points="203.034,242.758 308.966,242.758 308.966,127.999 203.034,127.999 "/> <polygon style="fill:#13334c;" points="308.966,39.723 291.31,75.034 220.69,75.034 203.034,39.723 "/> </g> <path style="fill:#fd5f00;" d="M150.069,39.723h211.862c9.71,0,17.655-7.945,17.655-17.655s-7.945-17.655-17.655-17.655H150.069 c-9.71,0-17.655,7.945-17.655,17.655S140.359,39.723,150.069,39.723"/> <g> <path style="fill:#13334c;" d="M512,252.758v103.583c0,5.526-4.476,10.002-10.002,10.002h-60.619V242.756h60.619 C507.524,242.756,512,247.24,512,252.758"/> <polygon style="fill:#13334c;" points="123.586,366.344 388.414,366.344 388.414,242.758 123.586,242.758 "/> <path style="fill:#13334c;" d="M70.621,242.758v123.586H10.002C4.476,366.344,0,361.868,0,356.342V252.759 c0-5.526,4.476-10.002,10.002-10.002H70.621z"/> </g> <g> <path style="fill:#eaeadd;" d="M123.586,217.447v174.204c0,5.526-4.476,10.002-10.002,10.002H80.622 c-5.526,0-10.002-4.476-10.002-10.002V217.447c0-5.517,4.476-10.002,10.002-10.002h32.962 C119.111,207.446,123.586,211.93,123.586,217.447"/> <path style="fill:#eaeadd;" d="M441.379,217.447v174.204c0,5.526-4.476,10.002-10.002,10.002h-32.962 c-5.526,0-10.002-4.476-10.002-10.002V217.447c0-5.517,4.476-10.002,10.002-10.002h32.962 C436.904,207.446,441.379,211.93,441.379,217.447"/> </g> <path style="fill:#005792;" d="M283.043,496.848L283.043,496.848c14.318,14.318,37.526,14.318,51.844,0 c14.31-14.318,14.265-36.705,0-56.461l-25.918-38.735l-25.927,38.735C268.778,463.295,268.734,482.53,283.043,496.848"/> <path style="fill:#eaeadd;" d="M264.828,331.034h-17.655v-26.483c0-4.873-3.946-8.828-8.828-8.828h-26.483 c-4.882,0-8.828,3.955-8.828,8.828s3.946,8.828,8.828,8.828h17.655v26.483c0,4.873,3.946,8.828,8.828,8.828H256v17.655h17.655 v-26.483C273.655,334.988,269.709,331.034,264.828,331.034"/> </g> </g>
</svg>